<?xml version="1.0" standalone="no"?>
<!DOCTYPE svg PUBLIC "-//W3C//DTD SVG 20010904//EN"
 "http://www.w3.org/TR/2001/REC-SVG-20010904/DTD/svg10.dtd">
<svg version="1.0" xmlns="http://www.w3.org/2000/svg"
 width="1276.000000pt" height="1276.000000pt" viewBox="0 0 1276.000000 1276.000000"
 preserveAspectRatio="xMidYMid meet">
<metadata>
Created by potrace 1.14, written by Peter Selinger 2001-2017
</metadata>
<g transform="translate(0.000000,1276.000000) scale(0.100000,-0.100000)"
fill="#000000" stroke="none">
<path d="M6078 12755 c-2 -2 -53 -6 -113 -9 -61 -3 -128 -8 -150 -10 -22 -3
-67 -8 -100 -11 -33 -3 -71 -7 -85 -10 -14 -2 -50 -6 -80 -9 -30 -3 -64 -8
-75 -10 -11 -2 -42 -7 -70 -11 -27 -4 -59 -9 -70 -10 -38 -6 -90 -16 -165 -31
-41 -9 -86 -18 -100 -20 -14 -3 -53 -11 -86 -19 -34 -8 -73 -16 -85 -19 -30
-6 -151 -38 -251 -65 -110 -30 -421 -132 -433 -141 -5 -5 -14 -8 -18 -8 -4 0
-20 -5 -35 -10 -137 -52 -222 -86 -247 -97 -16 -7 -64 -28 -105 -45 -83 -36
-442 -211 -450 -219 -3 -3 -30 -19 -60 -35 -137 -72 -461 -272 -468 -288 -2
-5 -10 -8 -18 -8 -8 0 -14 -5 -14 -11 0 -5 -4 -8 -9 -5 -5 4 -11 3 -13 -2 -1
-4 -48 -39 -103 -78 -130 -93 -188 -137 -320 -244 -83 -68 -112 -91 -150 -125
-12 -11 -57 -51 -101 -90 -81 -73 -419 -405 -411 -405 2 0 -19 -24 -47 -54
-28 -29 -60 -64 -71 -77 -88 -105 -121 -145 -130 -157 -5 -7 -17 -21 -26 -30
-19 -21 -149 -189 -169 -218 -8 -12 -42 -60 -74 -106 -100 -140 -126 -178
-126 -183 0 -3 -5 -11 -10 -18 -21 -24 -151 -234 -206 -332 -108 -193 -304
-587 -304 -610 0 -2 -13 -33 -29 -67 -15 -35 -34 -81 -42 -103 -7 -22 -16 -44
-20 -50 -4 -5 -17 -39 -29 -75 -12 -36 -26 -71 -32 -77 -6 -7 -8 -13 -4 -13 3
0 -1 -17 -10 -37 -15 -36 -101 -302 -108 -333 -2 -8 -5 -22 -9 -30 -17 -47
-104 -404 -121 -500 -3 -14 -9 -50 -15 -80 -6 -30 -13 -68 -16 -85 -2 -16 -7
-41 -10 -55 -3 -14 -8 -43 -11 -65 -2 -22 -7 -51 -9 -65 -2 -14 -6 -45 -10
-70 -3 -25 -7 -61 -10 -80 -9 -73 -18 -164 -32 -350 -15 -193 -7 -853 12 -971
2 -13 6 -60 10 -104 6 -65 26 -216 50 -365 2 -14 6 -41 9 -60 2 -20 7 -47 10
-60 3 -14 8 -36 10 -50 4 -23 32 -159 43 -205 2 -11 6 -31 9 -45 2 -14 7 -32
10 -40 3 -8 8 -26 10 -39 12 -62 81 -301 127 -441 28 -85 52 -157 52 -160 1
-3 5 -14 9 -25 5 -11 17 -45 28 -75 11 -30 26 -68 33 -85 7 -16 32 -77 55
-135 57 -138 91 -214 151 -335 27 -55 49 -106 49 -112 0 -7 4 -13 8 -13 4 0
13 -12 19 -27 6 -16 37 -73 68 -128 31 -55 59 -108 62 -118 3 -9 9 -17 13 -17
4 0 11 -11 14 -25 4 -14 11 -25 16 -25 6 0 10 -4 10 -10 0 -8 68 -124 100
-170 6 -8 34 -51 63 -95 68 -105 150 -219 159 -223 5 -2 8 -10 8 -18 0 -8 5
-14 10 -14 6 0 10 -6 10 -14 0 -8 3 -16 8 -18 4 -1 23 -23 42 -48 19 -25 39
-48 45 -52 5 -4 6 -8 1 -8 -5 0 0 -8 10 -18 11 -9 46 -51 79 -92 65 -81 87
-108 125 -150 14 -15 50 -56 80 -91 69 -79 375 -384 464 -464 38 -33 80 -71
95 -85 16 -14 47 -41 71 -60 24 -19 48 -40 54 -45 27 -26 201 -159 296 -228
58 -42 110 -80 115 -84 21 -17 220 -148 230 -152 5 -2 28 -16 50 -30 60 -39
70 -45 200 -119 66 -38 160 -90 209 -115 48 -26 95 -52 102 -58 8 -6 14 -9 14
-6 0 3 35 -12 77 -33 72 -36 171 -82 183 -85 3 0 21 -8 40 -17 90 -41 135 -59
265 -108 77 -28 149 -56 160 -61 11 -5 29 -11 40 -14 11 -2 47 -13 80 -25 33
-11 65 -22 70 -24 6 -1 30 -9 55 -16 25 -8 47 -14 50 -15 3 0 31 -9 63 -18 69
-21 233 -64 267 -70 14 -3 43 -10 65 -15 58 -16 281 -60 340 -68 28 -3 53 -8
57 -10 3 -2 30 -7 60 -10 29 -3 55 -7 58 -9 3 -2 37 -7 75 -10 38 -4 78 -9 90
-11 11 -2 52 -7 90 -10 39 -3 81 -7 95 -10 177 -29 979 -23 1215 10 22 3 67 8
100 11 50 5 167 22 353 51 18 3 97 19 175 35 78 17 154 32 168 35 14 2 99 25
190 50 249 69 244 67 269 77 8 3 53 17 100 32 47 15 92 29 100 32 8 4 17 7 20
8 3 1 12 5 20 8 8 3 65 25 125 47 61 22 119 45 130 50 69 31 136 60 141 60 17
0 379 178 517 254 53 29 97 51 97 47 0 -3 4 -1 8 4 4 6 30 24 57 40 57 34 63
38 140 85 31 19 64 40 73 45 23 14 246 166 303 207 71 51 196 146 213 164 9 8
16 13 16 10 0 -3 8 2 18 12 28 26 76 66 81 67 3 0 16 11 31 25 14 14 50 45 79
70 175 147 481 452 626 624 22 26 51 59 65 74 14 15 41 47 60 72 47 61 63 80
78 95 6 8 12 19 12 25 0 6 5 8 10 5 6 -3 10 -2 10 3 0 5 15 29 33 53 19 24 55
73 81 109 26 36 53 73 61 82 8 9 21 31 30 48 8 16 20 30 26 30 6 0 8 4 5 9 -4
5 -3 11 1 13 11 5 123 175 123 187 0 5 6 14 13 18 6 4 23 28 36 53 14 25 27
47 30 50 4 3 12 16 18 30 7 14 27 50 44 80 88 151 215 399 269 525 11 28 27
62 35 77 8 14 15 33 15 42 0 9 5 16 12 16 6 0 8 3 5 6 -4 4 0 19 8 33 8 14 30
67 49 116 18 50 37 99 41 110 5 11 9 22 9 25 1 3 4 10 8 15 8 13 136 409 144
444 6 30 5 28 27 101 9 30 18 66 21 80 3 14 7 34 10 45 9 34 28 109 31 125 32
156 65 326 70 360 6 45 16 108 20 129 2 13 7 49 11 80 3 31 8 65 10 76 2 11 6
54 10 95 3 41 7 86 10 100 25 152 25 919 -1 1135 -2 17 -6 55 -9 86 -3 31 -8
72 -10 90 -3 19 -8 57 -11 84 -3 28 -10 75 -15 105 -8 49 -18 115 -25 160 -2
15 -14 77 -22 115 -2 11 -6 31 -9 45 -10 53 -47 217 -61 270 -8 30 -16 64 -18
75 -5 24 -66 235 -93 325 -22 70 -88 259 -105 300 -6 14 -11 27 -12 30 -2 11
-47 127 -62 160 -8 19 -19 44 -23 55 -4 11 -20 45 -34 76 -14 31 -26 59 -26
63 0 9 -192 399 -200 406 -3 3 -12 19 -20 35 -8 17 -21 38 -29 48 -8 9 -11 17
-7 17 4 0 -2 13 -13 29 -12 16 -21 34 -21 40 0 6 -4 11 -10 11 -5 0 -10 5 -10
10 0 6 -22 46 -50 90 -27 44 -50 84 -50 90 0 5 -3 10 -8 10 -4 0 -16 16 -27
36 -10 19 -26 44 -34 54 -9 11 -29 42 -46 69 -16 28 -33 51 -37 51 -5 0 -8 5
-8 10 0 6 -5 16 -10 23 -35 41 -110 148 -110 156 0 5 -3 11 -8 13 -6 2 -29 31
-84 103 -50 65 -185 229 -218 265 -14 15 -52 58 -85 96 -79 90 -360 371 -454
454 -41 36 -81 72 -90 81 -9 8 -43 37 -76 65 -33 27 -62 51 -65 54 -29 32
-426 326 -472 351 -13 7 -25 15 -28 18 -3 4 -45 32 -95 64 -49 31 -95 61 -102
67 -7 5 -15 10 -18 10 -3 0 -31 16 -61 35 -30 19 -59 35 -64 35 -6 0 -10 5
-10 10 0 6 -4 10 -8 10 -5 0 -55 26 -113 58 -98 55 -367 189 -454 227 -22 9
-58 25 -80 35 -78 35 -111 49 -180 75 -38 15 -79 31 -90 35 -136 57 -541 186
-675 216 -19 4 -39 9 -45 11 -27 7 -272 65 -290 67 -11 2 -33 6 -50 9 -38 8
-80 16 -125 23 -19 2 -48 8 -65 11 -16 4 -39 8 -50 9 -11 1 -76 9 -145 18
-182 24 -216 28 -375 42 -68 6 -752 14 -757 9z"/>
</g>
</svg>
